<svg width="400" height="140" xmlns="http://www.w3.org/2000/svg" viewBox="0 0 400 140">
  <defs>
    <linearGradient id="logoGrad1" x1="0%" y1="0%" x2="100%" y2="100%">
      <stop offset="0%" style="stop-color:#0088cc;stop-opacity:1" />
      <stop offset="100%" style="stop-color:#006699;stop-opacity:1" />
    </linearGradient>
    <linearGradient id="logoGrad2" x1="0%" y1="0%" x2="100%" y2="0%">
      <stop offset="0%" style="stop-color:#ff6b35;stop-opacity:1" />
      <stop offset="50%" style="stop-color:#ffd700;stop-opacity:1" />
      <stop offset="100%" style="stop-color:#00d4ff;stop-opacity:1" />
    </linearGradient>
  </defs>
  
  <!-- Main logo icon - stylized building -->
  <g transform="translate(20, 15)">
    <!-- Left structure -->
    <rect x="0" y="15" width="14" height="45" fill="#0088cc" rx="2"/>
    <rect x="2" y="17" width="10" height="10" fill="#00d4ff"/>
    <rect x="2" y="30" width="10" height="10" fill="#00d4ff"/>
    <rect x="2" y="43" width="10" height="10" fill="#00d4ff"/>
    
    <!-- Middle structure -->
    <rect x="18" y="8" width="14" height="52" fill="#0088cc" rx="2"/>
    <rect x="20" y="10" width="10" height="10" fill="#00d4ff"/>
    <rect x="20" y="23" width="10" height="10" fill="#00d4ff"/>
    <rect x="20" y="36" width="10" height="10" fill="#00d4ff"/>
    <rect x="20" y="49" width="10" height="10" fill="#00d4ff"/>
    
    <!-- Right structure -->
    <rect x="36" y="20" width="14" height="40" fill="#0088cc" rx="2"/>
    <rect x="38" y="22" width="10" height="10" fill="#00d4ff"/>
    <rect x="38" y="35" width="10" height="10" fill="#00d4ff"/>
    <rect x="38" y="48" width="10" height="10" fill="#00d4ff"/>
    
    <!-- Accent circles -->
    <circle cx="65" cy="18" r="13" fill="#ff6b35"/>
    <circle cx="75" cy="35" r="11" fill="#ffd700"/>
    <circle cx="60" cy="52" r="9" fill="#00d4ff"/>
  </g>
  
  <!-- Text section -->
  <g>
    <!-- Main title -->
    <text x="200" y="50" font-family="Arial, Helvetica, sans-serif" font-size="26" font-weight="bold" fill="#0088cc" text-anchor="middle">UNIVERSITÉ</text>
    <text x="200" y="80" font-family="Arial, Helvetica, sans-serif" font-size="32" font-weight="bold" fill="#006699" text-anchor="middle">MUNDIAPOLIS</text>
    
    <!-- Subtitle -->
    <text x="200" y="105" font-family="Arial, Helvetica, sans-serif" font-size="11" fill="#666666" text-anchor="middle" letter-spacing="1.5">HONORIS UNITED UNIVERSITIES</text>
  </g>
</svg>