<svg width="1000" height="500" xmlns="http://www.w3.org/2000/svg">
  <defs>
    <style>
      text { font-family: Arial, sans-serif; font-size: 12px; }
      .header { fill: #333; font-weight: bold; }
      .status-unknown { fill: #999; }
      .status-down { fill: #D32F2F; }
    </style>
  </defs>
  <rect width="1000" height="500" fill="#F5F5F5"/>
  <text x="20" y="30" class="header" font-size="18">Zabbix - Host added (Problème détecté)</text>
  <line x1="20" y1="50" x2="980" y2="50" stroke="#CCC" stroke-width="1"/>
  
  <!-- Tableau des hôtes -->
  <rect x="20" y="60" width="960" height="40" fill="#FFF" stroke="#CCC" stroke-width="1"/>
  <text x="30" y="85" class="header">Name</text>
  <text x="200" y="85" class="header">Interface</text>
  <text x="450" y="85" class="header">Availability</text>
  <text x="650" y="85" class="header">Status</text>
  
  <!-- Client Linux -->
  <rect x="20" y="100" width="960" height="40" fill="#FFF" stroke="#CCC" stroke-width="1"/>
  <text x="30" y="125">Client Linux</text>
  <text x="200" y="125">3.218.178.131 10050</text>
  <text x="450" y="125">Unknown</text>
  <text x="650" y="125" class="status-unknown">⚠ Unknown</text>
  
  <!-- Client Windows -->
  <rect x="20" y="140" width="960" height="40" fill="#FFF" stroke="#CCC" stroke-width="1"/>
  <text x="30" y="165">Client Windows</text>
  <text x="200" y="165">44.216.92.137 10050</text>
  <text x="450" y="165">Unknown</text>
  <text x="650" y="165" class="status-unknown">⚠ Unknown</text>
  
  <!-- Zabbix Server -->
  <rect x="20" y="180" width="960" height="40" fill="#FFE0E0" stroke="#D32F2F" stroke-width="2"/>
  <text x="30" y="205" font-weight="bold">Zabbix server</text>
  <text x="200" y="205">100.49.103.108 10050</text>
  <text x="450" y="205" class="status-down">Down</text>
  <text x="650" y="205" class="status-down">🔴 DOWN</text>
  
  <!-- Explication du problème -->
  <text x="20" y="260" class="header">Problème rencontré:</text>
  <text x="20" y="285">• Zabbix Server reste "DOWN" - Les agents ne peuvent pas communiquer avec le serveur</text>
  <text x="20" y="305">• Migration MySQL → PostgreSQL échouée - Impossible d'accéder au dashboard</text>
  <text x="20" y="325">• Retour à MySQL - Le problème persiste</text>
  <text x="20" y="345">• Tous les hôtes restent "Unknown" en raison de la perte de connexion serveur</text>
  <text x="20" y="365">• Cause probable: Configuration Docker ou connectivité réseau entre conteneurs</text>
  
  <text x="20" y="410" class="header" font-size="11">Solutions à vérifier:</text>
  <text x="20" y="430">1. Vérifier les logs Docker: docker logs zabbix-server</text>
  <text x="20" y="450">2. Vérifier la connectivité entre conteneurs: docker network inspect bridge</text>
  <text x="20" y="470">3. Vérifier les ports: netstat -an | grep 10051</text>
</svg>